ffmpeg started on 2016-12-07 at 22:57:24
Report written to "Output/x264/results/ffmpeg/crowd_run_2160p50slower3500k.log"
Command line:
Tools/ffmpeg/ffmpeg -benchmark -y -i Input/y4m/crowd_run_2160p50.y4m -c:v libx264 -preset slower -b:v 3500k -an Output/x264/encoded/crowd_run_2160p50slower3500k.mkv
ffmpeg version N-82227-gdb23fde Copyright (c) 2000-2016 the FFmpeg developers
  built with gcc 5.4.0 (Ubuntu 5.4.0-6ubuntu1~16.04.2) 20160609
  configuration: --prefix=/home/jaroslav/ffmpeg_build --pkg-config-flags=--static --extra-cflags=-I/home/jaroslav/ffmpeg_build/include --extra-ldflags=-L/home/jaroslav/ffmpeg_build/lib --bindir=/home/jaroslav/bin --enable-gpl --enable-libass --enable-libfdk-aac --enable-libfreetype --enable-libmp3lame --enable-libopus --enable-libtheora --enable-libvorbis --enable-libvpx --enable-libx264 --enable-libx265 --enable-nvenc --enable-libmfx --enable-libxvid --enable-libgsm --enable-libopencore-amrnb --enable-version3 --enable-nonfree
  libavutil      55. 35.100 / 55. 35.100
  libavcodec     57. 66.101 / 57. 66.101
  libavformat    57. 57.100 / 57. 57.100
  libavdevice    57.  2.100 / 57.  2.100
  libavfilter     6. 66.100 /  6. 66.100
  libswscale      4.  3.100 /  4.  3.100
  libswresample   2.  4.100 /  2.  4.100
  libpostproc    54.  2.100 / 54.  2.100
Input #0, yuv4mpegpipe, from 'Input/y4m/crowd_run_2160p50.y4m':
  Duration: 00:00:10.00, start: 0.000000, bitrate: 4976642 kb/s
    Stream #0:0: Video: rawvideo (I420 / 0x30323449), yuv420p(progressive), 3840x2160, SAR 1:1 DAR 16:9, 50 fps, 50 tbr, 50 tbn, 50 tbc
[libx264 @ 0x2da91c0] using SAR=1/1
[libx264 @ 0x2da91c0] DPB size (8 frames, 259200 mbs) > level limit (5 frames, 184320 mbs)
[libx264 @ 0x2da91c0] using cpu capabilities: MMX2 SSE2Fast SSSE3 SSE4.2 AVX FMA3 AVX2 LZCNT BMI2
[libx264 @ 0x2da91c0] profile High, level 5.2
[libx264 @ 0x2da91c0] 264 - core 148 - H.264/MPEG-4 AVC codec - Copyleft 2003-2016 - http://www.videolan.org/x264.html - options: cabac=1 ref=8 deblock=1:0:0 analyse=0x3:0x133 me=umh subme=9 psy=1 psy_rd=1.00:0.00 mixed_ref=1 me_range=16 chroma_me=1 trellis=2 8x8dct=1 cqm=0 deadzone=21,11 fast_pskip=1 chroma_qp_offset=-2 threads=6 lookahead_threads=1 sliced_threads=0 nr=0 decimate=1 interlaced=0 bluray_compat=0 constrained_intra=0 bframes=3 b_pyramid=2 b_adapt=2 b_bias=0 direct=3 weightb=1 open_gop=0 weightp=2 keyint=250 keyint_min=25 scenecut=40 intra_refresh=0 rc_lookahead=60 rc=abr mbtree=1 bitrate=3500 ratetol=1.0 qcomp=0.60 qpmin=0 qpmax=69 qpstep=4 ip_ratio=1.40 aq=1:1.00
Output #0, matroska, to 'Output/x264/encoded/crowd_run_2160p50slower3500k.mkv':
  Metadata:
    encoder         : Lavf57.57.100
    Stream #0:0: Video: h264 (libx264) (H264 / 0x34363248), yuv420p, 3840x2160 [SAR 1:1 DAR 16:9], q=-1--1, 3500 kb/s, 50 fps, 1k tbn, 50 tbc
    Metadata:
      encoder         : Lavc57.66.101 libx264
    Side data:
      cpb: bitrate max/min/avg: 0/0/3500000 buffer size: 0 vbv_delay: -1
Stream mapping:
  Stream #0:0 -> #0:0 (rawvideo (native) -> h264 (libx264))
Press [q] to stop, [?] for help
frame=    9 fps=0.0 q=0.0 size=       0kB time=00:00:00.00 bitrate=N/A speed=   0x    frame=   16 fps= 16 q=0.0 size=       0kB time=00:00:00.00 bitrate=N/A speed=   0x    frame=   24 fps= 16 q=0.0 size=       0kB time=00:00:00.00 bitrate=N/A speed=   0x    frame=   30 fps= 15 q=0.0 size=       0kB time=00:00:00.00 bitrate=N/A speed=   0x    frame=   41 fps= 16 q=0.0 size=       0kB time=00:00:00.00 bitrate=N/A speed=   0x    frame=   48 fps= 14 q=0.0 size=       0kB time=00:00:00.00 bitrate=N/A speed=   0x    frame=   56 fps= 15 q=0.0 size=       0kB time=00:00:00.00 bitrate=N/A speed=   0x    frame=   64 fps= 15 q=0.0 size=       0kB time=00:00:00.00 bitrate=N/A speed=   0x    frame=   67 fps=9.0 q=0.0 size=       0kB time=00:00:00.00 bitrate=N/A speed=   0x    frame=   72 fps=8.9 q=44.0 size=       1kB time=-00:00:00.01 bitrate=N/A speed=N/A    frame=   75 fps=8.3 q=49.0 size=       1kB time=00:00:00.04 bitrate= 143.6kbits/s speed=0.00455x    frame=   78 fps=8.2 q=54.0 size=       1kB time=00:00:00.10 bitrate=  58.3kbits/s speed=0.0106x    frame=   82 fps=7.7 q=59.0 size=       1kB time=00:00:00.18 bitrate=  32.5kbits/s speed=0.0169x    frame=   84 fps=7.4 q=59.0 size=       1kB time=00:00:00.22 bitrate=  26.6kbits/s speed=0.0195x    frame=   89 fps=7.3 q=58.0 size=       1kB time=00:00:00.32 bitrate=  18.3kbits/s speed=0.0262x    frame=   91 fps=7.0 q=58.0 size=       1kB time=00:00:00.36 bitrate=  16.3kbits/s speed=0.0276x    frame=   95 fps=6.7 q=58.0 size=       1kB time=00:00:00.44 bitrate=  13.4kbits/s speed=0.0313x    frame=   98 fps=6.7 q=58.0 size=       1kB time=00:00:00.50 bitrate=  11.8kbits/s speed=0.0343x    frame=  100 fps=6.6 q=58.0 size=       1kB time=00:00:00.54 bitrate=  10.9kbits/s speed=0.0356x    frame=  103 fps=6.4 q=58.0 size=       1kB time=00:00:00.60 bitrate=   9.8kbits/s speed=0.0372x    frame=  108 fps=6.5 q=58.0 size=       1kB time=00:00:00.70 bitrate=   8.4kbits/s speed=0.0419x    frame=  109 fps=6.2 q=58.0 size=       1kB time=00:00:00.72 bitrate=   8.2kbits/s speed=0.0413x    frame=  111 fps=6.2 q=57.0 size=       1kB time=00:00:00.76 bitrate=   7.7kbits/s speed=0.0422x    frame=  114 fps=6.1 q=57.0 size=       1kB time=00:00:00.82 bitrate=   7.2kbits/s speed=0.0442x    frame=  116 fps=6.1 q=57.0 size=       1kB time=00:00:00.86 bitrate=   6.8kbits/s speed=0.045x    frame=  118 fps=6.0 q=57.0 size=       1kB time=00:00:00.90 bitrate=   6.5kbits/s speed=0.0455x    frame=  121 fps=5.9 q=57.0 size=       1kB time=00:00:00.96 bitrate=   6.1kbits/s speed=0.0468x    frame=  125 fps=5.9 q=57.0 size=       1kB time=00:00:01.04 bitrate=   5.7kbits/s speed=0.0494x    frame=  127 fps=5.7 q=57.0 size=       1kB time=00:00:01.08 bitrate=   5.4kbits/s speed=0.0489x    frame=  131 fps=5.7 q=57.0 size=       1kB time=00:00:01.16 bitrate=   5.1kbits/s speed=0.0504x    frame=  135 fps=5.6 q=57.0 size=       1kB time=00:00:01.24 bitrate=   4.7kbits/s speed=0.0515x    frame=  139 fps=5.5 q=57.0 size=       1kB time=00:00:01.32 bitrate=   4.5kbits/s speed=0.0526x    frame=  143 fps=5.5 q=56.0 size=       1kB time=00:00:01.40 bitrate=   4.2kbits/s speed=0.0541x    frame=  146 fps=5.5 q=56.0 size=       1kB time=00:00:01.46 bitrate=   4.0kbits/s speed=0.0546x    frame=  149 fps=5.5 q=56.0 size=       1kB time=00:00:01.52 bitrate=   3.9kbits/s speed=0.0557x    frame=  151 fps=5.4 q=56.0 size=       1kB time=00:00:01.56 bitrate=   3.8kbits/s speed=0.0554x    frame=  155 fps=5.4 q=56.0 size=       1kB time=00:00:01.64 bitrate=   3.6kbits/s speed=0.0567x    frame=  157 fps=5.3 q=56.0 size=       1kB time=00:00:01.68 bitrate=   3.5kbits/s speed=0.0566x    frame=  161 fps=5.3 q=56.0 size=       1kB time=00:00:01.76 bitrate=   3.3kbits/s speed=0.0582x    frame=  163 fps=5.2 q=56.0 size=       1kB time=00:00:01.80 bitrate=   3.3kbits/s speed=0.0579x    frame=  167 fps=5.2 q=56.0 size=       1kB time=00:00:01.88 bitrate=   3.1kbits/s speed=0.0585x    frame=  171 fps=5.2 q=56.0 size=       1kB time=00:00:01.96 bitrate=   3.0kbits/s speed=0.0591x    frame=  175 fps=5.2 q=56.0 size=       1kB time=00:00:02.04 bitrate=   2.9kbits/s speed=0.0605x    frame=  177 fps=5.1 q=56.0 size=       1kB time=00:00:02.08 bitrate=   2.8kbits/s speed=0.0604x    frame=  178 fps=5.1 q=56.0 size=       1kB time=00:00:02.10 bitrate=   2.8kbits/s speed=0.0597x    frame=  183 fps=5.1 q=56.0 size=       1kB time=00:00:02.20 bitrate=   2.7kbits/s speed=0.0614x    frame=  184 fps=5.0 q=56.0 size=       1kB time=00:00:02.22 bitrate=   2.7kbits/s speed=0.0607x    frame=  188 fps=5.0 q=56.0 size=       1kB time=00:00:02.30 bitrate=   2.6kbits/s speed=0.0616x    frame=  191 fps=5.0 q=56.0 size=       1kB time=00:00:02.36 bitrate=   2.5kbits/s speed=0.0618x    frame=  193 fps=5.0 q=56.0 size=       1kB time=00:00:02.40 bitrate=   2.5kbits/s speed=0.0619x    frame=  196 fps=5.0 q=56.0 size=       1kB time=00:00:02.46 bitrate=   2.4kbits/s speed=0.0624x    frame=  200 fps=5.0 q=55.0 size=       1kB time=00:00:02.54 bitrate=   2.3kbits/s speed=0.063x    frame=  202 fps=4.9 q=55.0 size=       1kB time=00:00:02.58 bitrate=   2.3kbits/s speed=0.0629x    frame=  204 fps=4.9 q=55.0 size=       1kB time=00:00:02.62 bitrate=   2.2kbits/s speed=0.063x    frame=  208 fps=4.9 q=55.0 size=       1kB time=00:00:02.70 bitrate=   2.2kbits/s speed=0.0639x    frame=  210 fps=4.9 q=55.0 size=       1kB time=00:00:02.74 bitrate=   2.1kbits/s speed=0.0639x    frame=  211 fps=4.9 q=55.0 size=       1kB time=00:00:02.76 bitrate=   2.1kbits/s speed=0.0635x    frame=  215 fps=4.9 q=55.0 size=       1kB time=00:00:02.84 bitrate=   2.1kbits/s speed=0.0646x    frame=  217 fps=4.8 q=55.0 size=       1kB time=00:00:02.88 bitrate=   2.0kbits/s speed=0.0642x    frame=  219 fps=4.8 q=55.0 size=       1kB time=00:00:02.92 bitrate=   2.0kbits/s speed=0.0642x    frame=  223 fps=4.8 q=55.0 size=       1kB time=00:00:03.00 bitrate=   2.0kbits/s speed=0.065x    frame=  224 fps=4.8 q=55.0 size=       1kB time=00:00:03.02 bitrate=   1.9kbits/s speed=0.0646x    frame=  227 fps=4.8 q=55.0 size=       1kB time=00:00:03.08 bitrate=   1.9kbits/s speed=0.0651x    frame=  229 fps=4.8 q=55.0 size=       1kB time=00:00:03.12 bitrate=   1.9kbits/s speed=0.0651x    frame=  232 fps=4.8 q=55.0 size=       1kB time=00:00:03.18 bitrate=   1.9kbits/s speed=0.0655x    frame=  233 fps=4.7 q=55.0 size=       1kB time=00:00:03.20 bitrate=   1.8kbits/s speed=0.0651x    frame=  237 fps=4.7 q=55.0 size=       1kB time=00:00:03.28 bitrate=   1.8kbits/s speed=0.0656x    frame=  241 fps=4.7 q=55.0 size=       1kB time=00:00:03.36 bitrate=   1.8kbits/s speed=0.0656x    frame=  245 fps=4.7 q=55.0 size=       1kB time=00:00:03.44 bitrate=   1.7kbits/s speed=0.0661x    frame=  248 fps=4.7 q=55.0 size=       1kB time=00:00:03.50 bitrate=   1.7kbits/s speed=0.0665x    frame=  250 fps=4.7 q=55.0 size=       1kB time=00:00:03.54 bitrate=   1.7kbits/s speed=0.0665x    frame=  252 fps=4.7 q=55.0 size=       1kB time=00:00:03.58 bitrate=   1.6kbits/s speed=0.0665x    frame=  255 fps=4.7 q=55.0 size=       1kB time=00:00:03.64 bitrate=   1.6kbits/s speed=0.0668x    frame=  257 fps=4.7 q=55.0 size=       1kB time=00:00:03.68 bitrate=   1.6kbits/s speed=0.0668x    frame=  260 fps=4.7 q=55.0 size=       1kB time=00:00:03.74 bitrate=   1.6kbits/s speed=0.067x    frame=  262 fps=4.6 q=55.0 size=       1kB time=00:00:03.78 bitrate=   1.6kbits/s speed=0.0671x    frame=  263 fps=4.6 q=55.0 size=       1kB time=00:00:03.80 bitrate=   1.5kbits/s speed=0.0668x    frame=  267 fps=4.6 q=55.0 size=       1kB time=00:00:03.88 bitrate=   1.5kbits/s speed=0.0673x    frame=  269 fps=4.6 q=55.0 size=       1kB time=00:00:03.92 bitrate=   1.5kbits/s speed=0.0674x    frame=  271 fps=4.6 q=55.0 size=       1kB time=00:00:03.96 bitrate=   1.5kbits/s speed=0.0672x    frame=  275 fps=4.6 q=55.0 size=       1kB time=00:00:04.04 bitrate=   1.5kbits/s speed=0.0678x    frame=  277 fps=4.6 q=55.0 size=       1kB time=00:00:04.08 bitrate=   1.4kbits/s speed=0.0677x    frame=  278 fps=4.6 q=55.0 size=       1kB time=00:00:04.10 bitrate=   1.4kbits/s speed=0.0674x    frame=  282 fps=4.6 q=55.0 size=       1kB time=00:00:04.18 bitrate=   1.4kbits/s speed=0.0677x    frame=  285 fps=4.5 q=55.0 size=       1kB time=00:00:04.24 bitrate=   1.4kbits/s speed=0.0677x    frame=  287 fps=4.5 q=55.0 size=       1kB time=00:00:04.28 bitrate=   1.4kbits/s speed=0.0678x    frame=  291 fps=4.6 q=55.0 size=       1kB time=00:00:04.36 bitrate=   1.4kbits/s speed=0.0682x    frame=  292 fps=4.5 q=55.0 size=       1kB time=00:00:04.38 bitrate=   1.3kbits/s speed=0.0679x    frame=  295 fps=4.5 q=55.0 size=       1kB time=00:00:04.44 bitrate=   1.3kbits/s speed=0.0681x    frame=  298 fps=4.5 q=55.0 size=       1kB time=00:00:04.50 bitrate=   1.3kbits/s speed=0.0682x    frame=  301 fps=4.5 q=55.0 size=       1kB time=00:00:04.56 bitrate=   1.3kbits/s speed=0.0681x    frame=  305 fps=4.5 q=55.0 size=       1kB time=00:00:04.64 bitrate=   1.3kbits/s speed=0.0682x    frame=  308 fps=4.5 q=55.0 size=       1kB time=00:00:04.70 bitrate=   1.3kbits/s speed=0.0684x    frame=  309 fps=4.5 q=55.0 size=       1kB time=00:00:04.72 bitrate=   1.2kbits/s speed=0.0682x    frame=  312 fps=4.5 q=55.0 size=       1kB time=00:00:04.78 bitrate=   1.2kbits/s speed=0.0685x    frame=  314 fps=4.5 q=55.0 size=       1kB time=00:00:04.82 bitrate=   1.2kbits/s speed=0.0686x    frame=  317 fps=4.5 q=55.0 size=       1kB time=00:00:04.88 bitrate=   1.2kbits/s speed=0.0686x    frame=  320 fps=4.4 q=55.0 size=       1kB time=00:00:04.94 bitrate=   1.2kbits/s speed=0.0687x    frame=  327 fps=4.5 q=55.0 size=    2180kB time=00:00:05.08 bitrate=3515.2kbits/s speed=0.0699x    frame=  329 fps=4.5 q=55.0 size=    2180kB time=00:00:05.12 bitrate=3487.7kbits/s speed=0.0699x    frame=  333 fps=4.5 q=55.0 size=    2180kB time=00:00:05.20 bitrate=3434.1kbits/s speed=0.0702x    frame=  334 fps=4.5 q=55.0 size=    2180kB time=00:00:05.22 bitrate=3420.9kbits/s speed=0.0699x    frame=  338 fps=4.5 q=55.0 size=    2180kB time=00:00:05.30 bitrate=3369.3kbits/s speed=0.0704x    frame=  340 fps=4.5 q=55.0 size=    2180kB time=00:00:05.34 bitrate=3344.1kbits/s speed=0.0703x    frame=  341 fps=4.4 q=55.0 size=    2180kB time=00:00:05.36 bitrate=3331.6kbits/s speed=0.0699x    frame=  345 fps=4.5 q=55.0 size=    2180kB time=00:00:05.44 bitrate=3282.6kbits/s speed=0.0704x    frame=  347 fps=4.4 q=55.0 size=    2180kB time=00:00:05.48 bitrate=3258.6kbits/s speed=0.0702x    frame=  349 fps=4.4 q=55.0 size=    2180kB time=00:00:05.52 bitrate=3235.0kbits/s speed=0.0701x    frame=  353 fps=4.4 q=55.0 size=    2180kB time=00:00:05.60 bitrate=3188.8kbits/s speed=0.0701x    frame=  357 fps=4.4 q=55.0 size=    2180kB time=00:00:05.68 bitrate=3143.9kbits/s speed=0.0703x    frame=  360 fps=4.4 q=55.0 size=    2180kB time=00:00:05.74 bitrate=3111.1kbits/s speed=0.0704x    frame=  362 fps=4.4 q=55.0 size=    2180kB time=00:00:05.78 bitrate=3089.5kbits/s speed=0.0704x    frame=  364 fps=4.4 q=55.0 size=    2180kB time=00:00:05.82 bitrate=3068.3kbits/s speed=0.0704x    frame=  366 fps=4.4 q=55.0 size=    2180kB time=00:00:05.86 bitrate=3047.4kbits/s speed=0.0703x    frame=  369 fps=4.4 q=55.0 size=    2180kB time=00:00:05.92 bitrate=3016.5kbits/s speed=0.0706x    frame=  371 fps=4.4 q=55.0 size=    2180kB time=00:00:05.96 bitrate=2996.2kbits/s speed=0.0704x    frame=  373 fps=4.4 q=55.0 size=    2180kB time=00:00:06.00 bitrate=2976.3kbits/s speed=0.0704x    frame=  377 fps=4.4 q=55.0 size=    2180kB time=00:00:06.08 bitrate=2937.1kbits/s speed=0.0706x    frame=  380 fps=4.4 q=55.0 size=    2180kB time=00:00:06.14 bitrate=2908.4kbits/s speed=0.0703x    frame=  384 fps=4.4 q=55.0 size=    2180kB time=00:00:06.22 bitrate=2871.0kbits/s speed=0.0708x    frame=  386 fps=4.3 q=55.0 size=    2180kB time=00:00:06.26 bitrate=2852.7kbits/s speed=0.0703x    frame=  390 fps=4.3 q=56.0 size=    2180kB time=00:00:06.34 bitrate=2816.7kbits/s speed=0.0704x    frame=  393 fps=4.3 q=56.0 size=    2180kB time=00:00:06.40 bitrate=2790.3kbits/s speed=0.0704x    frame=  395 fps=4.3 q=56.0 size=    2180kB time=00:00:06.44 bitrate=2773.0kbits/s speed=0.0705x    frame=  399 fps=4.3 q=56.0 size=    2180kB time=00:00:06.52 bitrate=2738.9kbits/s speed=0.0704x    frame=  403 fps=4.3 q=56.0 size=    2180kB time=00:00:06.60 bitrate=2705.7kbits/s speed=0.0706x    frame=  405 fps=4.3 q=56.0 size=    2180kB time=00:00:06.64 bitrate=2689.4kbits/s speed=0.0705x    frame=  407 fps=4.3 q=56.0 size=    2180kB time=00:00:06.68 bitrate=2673.3kbits/s speed=0.0705x    frame=  410 fps=4.3 q=56.0 size=    2180kB time=00:00:06.74 bitrate=2649.6kbits/s speed=0.0707x    frame=  411 fps=4.3 q=56.0 size=    2180kB time=00:00:06.76 bitrate=2641.7kbits/s speed=0.0705x    frame=  415 fps=4.3 q=56.0 size=    2180kB time=00:00:06.84 bitrate=2610.8kbits/s speed=0.0706x    frame=  419 fps=4.3 q=56.0 size=    2180kB time=00:00:06.92 bitrate=2580.6kbits/s speed=0.0706x    frame=  422 fps=4.3 q=56.0 size=    2180kB time=00:00:06.98 bitrate=2558.5kbits/s speed=0.0708x    frame=  424 fps=4.3 q=56.0 size=    2180kB time=00:00:07.02 bitrate=2543.9kbits/s speed=0.0707x    frame=  428 fps=4.3 q=56.0 size=    2180kB time=00:00:07.10 bitrate=2515.2kbits/s speed=0.0707x    frame=  432 fps=4.3 q=56.0 size=    2180kB time=00:00:07.18 bitrate=2487.2kbits/s speed=0.0708x    frame=  434 fps=4.2 q=56.0 size=    2180kB time=00:00:07.22 bitrate=2473.4kbits/s speed=0.0707x    frame=  437 fps=4.3 q=56.0 size=    2180kB time=00:00:07.28 bitrate=2453.0kbits/s speed=0.0708x    frame=  440 fps=4.2 q=56.0 size=    2180kB time=00:00:07.34 bitrate=2433.0kbits/s speed=0.0708x    frame=  442 fps=4.2 q=56.0 size=    2180kB time=00:00:07.38 bitrate=2419.8kbits/s speed=0.0708x    frame=  445 fps=4.2 q=56.0 size=    2180kB time=00:00:07.44 bitrate=2400.3kbits/s speed=0.071x    frame=  447 fps=4.2 q=56.0 size=    2180kB time=00:00:07.48 bitrate=2387.5kbits/s speed=0.0707x    frame=  451 fps=4.2 q=56.0 size=    2180kB time=00:00:07.56 bitrate=2362.2kbits/s speed=0.0708x    frame=  454 fps=4.2 q=56.0 size=    2180kB time=00:00:07.62 bitrate=2343.6kbits/s speed=0.071x    frame=  455 fps=4.2 q=56.0 size=    2180kB time=00:00:07.64 bitrate=2337.5kbits/s speed=0.0707x    frame=  459 fps=4.2 q=56.0 size=    2180kB time=00:00:07.72 bitrate=2313.3kbits/s speed=0.0707x    frame=  463 fps=4.2 q=56.0 size=    2180kB time=00:00:07.80 bitrate=2289.5kbits/s speed=0.0706x    frame=  467 fps=4.2 q=56.0 size=    2180kB time=00:00:07.88 bitrate=2266.3kbits/s speed=0.0708x    frame=  470 fps=4.2 q=56.0 size=    2180kB time=00:00:07.94 bitrate=2249.2kbits/s speed=0.0706x    frame=  473 fps=4.2 q=56.0 size=    2180kB time=00:00:08.00 bitrate=2232.3kbits/s speed=0.0707x    frame=  476 fps=4.2 q=56.0 size=    2180kB time=00:00:08.06 bitrate=2215.7kbits/s speed=0.0706x    frame=  479 fps=4.2 q=56.0 size=    2180kB time=00:00:08.12 bitrate=2199.3kbits/s speed=0.0707x    frame=  483 fps=4.2 q=56.0 size=    2180kB time=00:00:08.20 bitrate=2177.9kbits/s speed=0.0707x    frame=  486 fps=4.2 q=56.0 size=    2180kB time=00:00:08.26 bitrate=2162.0kbits/s speed=0.0707x    frame=  490 fps=4.2 q=56.0 size=    2180kB time=00:00:08.34 bitrate=2141.3kbits/s speed=0.0707x    frame=  492 fps=4.1 q=56.0 size=    2180kB time=00:00:08.38 bitrate=2131.1kbits/s speed=0.0707x    frame=  494 fps=4.1 q=56.0 size=    2180kB time=00:00:08.42 bitrate=2121.0kbits/s speed=0.0707x    frame=  497 fps=4.1 q=56.0 size=    2180kB time=00:00:08.48 bitrate=2106.0kbits/s speed=0.0706x    frame=  500 fps=4.1 q=56.0 size=    2180kB time=00:00:08.54 bitrate=2091.2kbits/s speed=0.0704x    frame=  500 fps=3.6 q=-1.0 Lsize=    4448kB time=00:00:09.94 bitrate=3665.2kbits/s speed=0.0714x    
video:4443kB audio:0kB subtitle:0kB other streams:0kB global headers:0kB muxing overhead: 0.097670%
bench: utime=518.620s
bench: maxrss=2529840kB
[libx264 @ 0x2da91c0] frame I:2     Avg QP:44.47  size:125944
[libx264 @ 0x2da91c0] frame P:134   Avg QP:50.87  size: 18459
[libx264 @ 0x2da91c0] frame B:364   Avg QP:50.91  size:  5011
[libx264 @ 0x2da91c0] consecutive B-frames:  0.4%  2.8% 14.4% 82.4%
[libx264 @ 0x2da91c0] mb I  I16..4: 27.0% 70.5%  2.5%
[libx264 @ 0x2da91c0] mb P  I16..4: 10.0%  4.9%  0.0%  P16..4: 18.3%  0.3%  1.6%  0.0%  0.0%    skip:64.8%
[libx264 @ 0x2da91c0] mb B  I16..4:  0.0%  0.0%  0.0%  B16..8: 16.3%  0.1%  0.0%  direct: 0.1%  skip:83.5%  L0:34.4% L1:65.5% BI: 0.0%
[libx264 @ 0x2da91c0] final ratefactor: 47.72
[libx264 @ 0x2da91c0] 8x8 transform intra:36.2% inter:96.5%
[libx264 @ 0x2da91c0] direct mvs  spatial:98.9% temporal:1.1%
[libx264 @ 0x2da91c0] coded y,uvDC,uvAC intra: 5.2% 33.0% 1.2% inter: 0.2% 1.9% 0.0%
[libx264 @ 0x2da91c0] i16 v,h,dc,p: 63% 21%  5% 12%
[libx264 @ 0x2da91c0] i8 v,h,dc,ddl,ddr,vr,hd,vl,hu:  7%  3% 71%  4%  4%  3%  4%  3%  2%
[libx264 @ 0x2da91c0] i4 v,h,dc,ddl,ddr,vr,hd,vl,hu:  7%  3%  2% 15% 17% 15% 15% 11% 16%
[libx264 @ 0x2da91c0] i8c dc,h,v,p: 84%  7%  8%  1%
[libx264 @ 0x2da91c0] Weighted P-Frames: Y:0.7% UV:0.0%
[libx264 @ 0x2da91c0] ref P L0: 58.0%  0.6% 17.4%  6.3%  5.3%  4.8%  4.8%  2.8%  0.0%
[libx264 @ 0x2da91c0] ref B L0: 91.2%  3.6%  2.2%  0.9%  0.9%  0.7%  0.5%
[libx264 @ 0x2da91c0] ref B L1: 99.1%  0.9%
[libx264 @ 0x2da91c0] kb/s:3639.46
